<svg width="64" height="64" xmlns="http://www.w3.org/2000/svg"><defs><style>@font-face{font-family:ifont;src:url(//at.alicdn.com/t/font_1442373896_4754455.eot?#iefix) format(&quot;embedded-opentype&quot;),url(//at.alicdn.com/t/font_1442373896_4754455.woff) format(&quot;woff&quot;),url(//at.alicdn.com/t/font_1442373896_4754455.ttf) format(&quot;truetype&quot;),url(//at.alicdn.com/t/font_1442373896_4754455.svg#ifont) format(&quot;svg&quot;)}</style></defs><path d="M4 32.75c0 12.225 7.835 22.62 18.757 26.439 1.472.373 1.243-.682 1.243-1.391v-4.854c-8.493.994-8.833-4.628-9.406-5.569-1.156-1.969-3.875-2.469-3.063-3.406 1.938-1 3.906.25 6.188 3.625 1.653 2.446 4.866 2.036 6.51 1.625a7.99 7.99 0 0 1 2.168-3.804c-8.786-1.564-12.46-6.936-12.46-13.321 0-3.09 1.02-5.944 3.03-8.242-1.27-3.794.122-7.028.304-7.514 3.633-.33 7.41 2.6 7.7 2.83 2.07-.553 4.425-.855 7.06-.855 2.652 0 5.02.306 7.099.865.71-.54 4.211-3.05 7.589-2.743.18.48 1.543 3.646.347 7.383 2.029 2.304 3.059 5.17 3.059 8.276 0 6.398-3.688 11.778-12.512 13.33A7.976 7.976 0 0 1 40 51.126v7.04c.047.56 0 1.126.943 1.126C52.022 55.56 60 45.087 60 32.75c0-15.464-12.536-28-28-28s-28 12.536-28 28z" class="transform-group"/></svg>