<svg width="64" height="64" xmlns="http://www.w3.org/2000/svg"><defs><style>@font-face{font-family:ifont;src:url(//at.alicdn.com/t/font_1442373896_4754455.eot?#iefix) format(&quot;embedded-opentype&quot;),url(//at.alicdn.com/t/font_1442373896_4754455.woff) format(&quot;woff&quot;),url(//at.alicdn.com/t/font_1442373896_4754455.ttf) format(&quot;truetype&quot;),url(//at.alicdn.com/t/font_1442373896_4754455.svg#ifont) format(&quot;svg&quot;)}</style></defs><path d="M60.013 16.659c.04-.303 0-.615-.12-.903-.424-1.983-1.846-2.99-4.241-2.99H10.139c-2.09 0-4.351.768-5.45 2.283a1.747 1.747 0 0 0-.653 1.67 3.75 3.75 0 0 0-.024.423V45.15c0 2.901 3.227 6.127 6.127 6.127h45.513c2.9 0 4.376-3.226 4.376-6.127V17.142c0-.166-.005-.327-.015-.483zm-49.874-.392h45.537L32.02 35.121 8.46 16.344c.536-.1 1.195-.077 1.68-.077zm45.513 31.51H10.139c-.965 0-2.626-1.66-2.626-2.627V20.072L30.874 38.76a1.745 1.745 0 0 0 2.292 0l23.361-18.688V45.15c0 .966.09 2.626-.875 2.626z" class="transform-group"/></svg>