<svg width="64" height="64" xmlns="http://www.w3.org/2000/svg"><defs><style>@font-face{font-family:ifont;src:url(//at.alicdn.com/t/font_1442373896_4754455.eot?#iefix) format(&quot;embedded-opentype&quot;),url(//at.alicdn.com/t/font_1442373896_4754455.woff) format(&quot;woff&quot;),url(//at.alicdn.com/t/font_1442373896_4754455.ttf) format(&quot;truetype&quot;),url(//at.alicdn.com/t/font_1442373896_4754455.svg#ifont) format(&quot;svg&quot;)}</style></defs><path d="M42.017 8.618c4.445-.079 6.81 1.54 9.07 3.6 1.917-.165 4.408-1.237 5.877-1.98.476-.262.951-.523 1.427-.782-.838 2.266-1.976 4.04-3.722 5.386-.388.298-.773.701-1.26.892v.027c2.489-.025 4.544-1.148 6.494-1.757v.029c-1.025 1.628-2.411 3.28-3.89 4.464L54.22 19.92c.032 2.635-.038 5.151-.532 7.366-2.866 12.878-10.457 21.621-22.475 25.367-4.315 1.345-11.29 1.896-16.234.67-2.452-.61-4.667-1.296-6.746-2.204a27 27 0 0 1-3.246-1.676L3.98 48.83c1.115.033 2.42.34 3.666.139 1.128-.183 2.234-.134 3.274-.362 2.597-.57 4.9-1.323 6.886-2.485.962-.561 2.423-1.224 3.107-2.036-1.289.022-2.457-.277-3.415-.615-3.712-1.31-5.872-3.72-7.277-7.338 1.125.121 4.364.415 5.122-.223-1.417-.079-2.777-.898-3.751-1.507-2.985-1.87-5.42-5.002-5.402-9.822.393.184.785.37 1.176.556.75.318 1.512.487 2.407.67.379.078 1.134.302 1.568.14h-.056c-.577-.671-1.52-1.12-2.1-1.84-1.915-2.383-3.71-6.047-2.574-10.41.288-1.106.744-2.084 1.232-2.986.017.01.037.02.055.028.223.467.72.809 1.035 1.2.98 1.213 2.186 2.303 3.415 3.264 4.19 3.277 7.963 5.29 14.023 6.78 1.536.38 3.314.67 5.15.671-.516-1.502-.35-3.932.055-5.386 1.022-3.655 3.24-6.289 6.495-7.702.777-.336 1.64-.583 2.546-.78l1.4-.168" class="transform-group"/></svg>