<svg width="64" height="64" xmlns="http://www.w3.org/2000/svg"><defs><style>@font-face{font-family:ifont;src:url(//at.alicdn.com/t/font_1442373896_4754455.eot?#iefix) format(&quot;embedded-opentype&quot;),url(//at.alicdn.com/t/font_1442373896_4754455.woff) format(&quot;woff&quot;),url(//at.alicdn.com/t/font_1442373896_4754455.ttf) format(&quot;truetype&quot;),url(//at.alicdn.com/t/font_1442373896_4754455.svg#ifont) format(&quot;svg&quot;)}</style></defs><path d="M45.655 30.732s8.069-14.32-15.269-6.804c2.926-2.292 2.453-6.963.157-8.622C22 9.135 1.118 28.833 1.118 40.541c0 7.12 7.672 16.376 25.155 16.376 21.994 0 28.875-12.025 28.875-17.877 0-8.072-9.493-8.308-9.493-8.308zM26.997 53.837c-10.245.955-19.075-3.905-19.72-10.856-.65-6.948 7.13-13.356 17.377-14.31 10.245-.953 19.074 3.905 19.721 10.854.647 6.95-7.131 13.358-17.378 14.312zm-3.618-20.15c-5.548.938-9.392 5.554-8.586 10.303.803 4.751 5.95 7.842 11.498 6.904 5.545-.939 9.39-5.55 8.586-10.303-.806-4.752-5.95-7.842-11.498-6.905zm-.965 13.553c-1.792.491-3.613-.44-4.067-2.08-.45-1.646.637-3.377 2.427-3.871 1.792-.494 3.613.436 4.065 2.08.452 1.643-.633 3.374-2.425 3.87zm4.654-5.276a1.667 1.667 0 1 1-.003-3.333 1.667 1.667 0 0 1 .003 3.333zm32.35-28.986c-3.682-4.708-9.584-6.75-16.613-5.748a2.167 2.167 0 1 0 .61 4.29c6.96-.993 10.69 1.697 12.592 4.13 2.497 3.196 3.202 7.752 1.752 11.332a2.165 2.165 0 0 0 2.008 2.982c.855 0 1.666-.51 2.008-1.353 2.015-4.972 1.069-11.254-2.357-15.633zm-14.53 2.117a2.166 2.166 0 1 0 .614 4.29c1.992-.286 3.543.193 4.474 1.383.838 1.074 1.086 2.652.609 3.838a2.168 2.168 0 0 0 4.016 1.628c1.069-2.634.592-5.827-1.212-8.135-1.107-1.418-3.685-3.692-8.5-3.004z" class="transform-group"/></svg>